# Made in Blockbench 4.10.1
mtllib tent.mtl

o bottom
v -0.8999480756820495 1.4003706397458027 2.0625
v -0.8999480756820495 1.4003706397458027 -2.0625
v -1.4375 0 2.0625
v -1.4375 0 -2.0625
v -0.9582968523381246 1.422768636592384 -2.0625
v -0.9582968523381246 1.422768636592384 2.0625
v -1.495848776656075 0.02239799684658128 -2.0625
v -1.495848776656075 0.02239799684658128 2.0625
vt 0.46875 0.6796875
vt 0.47265625 0.6796875
vt 0.47265625 0.5859375
vt 0.46875 0.5859375
vt 0 1
vt 0.2578125 1
vt 0.2578125 0.90625
vt 0 0.90625
vt 0.46875 0.5859375
vt 0.47265625 0.5859375
vt 0.47265625 0.4921875
vt 0.46875 0.4921875
vt 0 0.90625
vt 0.2578125 0.90625
vt 0.2578125 0.8125
vt 0 0.8125
vt 0.44140625 0.4375
vt 0.4375 0.4375
vt 0.4375 0.6953125
vt 0.44140625 0.6953125
vt 0.4453125 0.6953125
vt 0.44140625 0.6953125
vt 0.44140625 0.4375
vt 0.4453125 0.4375
vn 0 0 -1
vn 0.9335804264972017 -0.3583679495453003 0
vn 0 0 1
vn -0.9335804264972017 0.3583679495453003 0
vn 0.3583679495453003 0.9335804264972017 0
vn -0.3583679495453003 -0.9335804264972017 0
usemtl m_4ee7f4be-e692-3688-7ee2-b6795d346216
f 4/4/1 7/3/1 5/2/1 2/1/1
f 3/8/2 4/7/2 2/6/2 1/5/2
f 8/12/3 3/11/3 1/10/3 6/9/3
f 7/16/4 8/15/4 6/14/4 5/13/4
f 6/20/5 1/19/5 2/18/5 5/17/5
f 7/24/6 4/23/6 3/22/6 8/21/6
o mid
v -0.6973493478300206 2.406666050825533 2.0625
v -0.6973493478300206 2.406666050825533 -2.0625
v -0.9312499999999999 1.3062500000000008 2.0625
v -0.9312499999999999 1.3062500000000008 -2.0625
v -0.7584835728758834 2.419660531501643 -2.0625
v -0.7584835728758834 2.419660531501643 2.0625
v -0.9923842250458628 1.3192444806761108 -2.0625
v -0.9923842250458628 1.3192444806761108 2.0625
vt 0.4765625 0.6796875
vt 0.48046875 0.6796875
vt 0.48046875 0.609375
vt 0.4765625 0.609375
vt 0.2578125 0.90625
vt 0.515625 0.90625
vt 0.515625 0.8359375
vt 0.2578125 0.8359375
vt 0.4765625 0.609375
vt 0.48046875 0.609375
vt 0.48046875 0.5390625
vt 0.4765625 0.5390625
vt 0.2578125 0.8359375
vt 0.515625 0.8359375
vt 0.515625 0.765625
vt 0.2578125 0.765625
vt 0.44921875 0.4375
vt 0.4453125 0.4375
vt 0.4453125 0.6953125
vt 0.44921875 0.6953125
vt 0.453125 0.6953125
vt 0.44921875 0.6953125
vt 0.44921875 0.4375
vt 0.453125 0.4375
vn 0 0 -1
vn 0.9781476007338057 -0.2079116908177593 0
vn 0 0 1
vn -0.9781476007338057 0.2079116908177593 0
vn 0.2079116908177593 0.9781476007338057 0
vn -0.2079116908177593 -0.9781476007338057 0
usemtl m_4ee7f4be-e692-3688-7ee2-b6795d346216
f 12/28/7 15/27/7 13/26/7 10/25/7
f 11/32/8 12/31/8 10/30/8 9/29/8
f 16/36/9 11/35/9 9/34/9 14/33/9
f 15/40/10 16/39/10 14/38/10 13/37/10
f 14/44/11 9/43/11 10/42/11 13/41/11
f 15/48/12 12/47/12 11/46/12 16/45/12
o top
v 0.030029326484118712 3.073429780995281 2.0625
v 0.030029326484118712 3.073429780995281 -2.0625
v 0.07020355208952744 3.0255520033003447 2.0625
v 0.07020355208952744 3.0255520033003447 -2.0625
v -0.7838928943297956 2.3904679457033327 -2.0625
v -0.7838928943297956 2.3904679457033327 2.0625
v -0.7437186687243869 2.342590168008397 -2.0625
v -0.7437186687243869 2.342590168008397 2.0625
vt 0.48046875 0.609375
vt 0.546875 0.609375
vt 0.546875 0.60546875
vt 0.48046875 0.60546875
vt 0.453125 0.6953125
vt 0.7109375 0.6953125
vt 0.7109375 0.69140625
vt 0.453125 0.69140625
vt 0.48046875 0.60546875
vt 0.546875 0.60546875
vt 0.546875 0.6015625
vt 0.48046875 0.6015625
vt 0.453125 0.69140625
vt 0.7109375 0.69140625
vt 0.7109375 0.6875
vt 0.453125 0.6875
vt 0.32421875 0.4375
vt 0.2578125 0.4375
vt 0.2578125 0.6953125
vt 0.32421875 0.6953125
vt 0.390625 0.6953125
vt 0.32421875 0.6953125
vt 0.32421875 0.4375
vt 0.390625 0.4375
vn 0 0 -1
vn 0.7660444431189781 0.6427876096865394 0
vn 0 0 1
vn -0.7660444431189781 -0.6427876096865394 0
vn -0.6427876096865394 0.7660444431189781 0
vn 0.6427876096865394 -0.7660444431189781 0
usemtl m_4ee7f4be-e692-3688-7ee2-b6795d346216
f 20/52/13 23/51/13 21/50/13 18/49/13
f 19/56/14 20/55/14 18/54/14 17/53/14
f 24/60/15 19/59/15 17/58/15 22/57/15
f 23/64/16 24/63/16 22/62/16 21/61/16
f 22/68/17 17/67/17 18/66/17 21/65/17
f 23/72/18 20/71/18 19/70/18 24/69/18
o bottom
v 0.9624480756820495 1.4003706397458027 2.0625
v 0.9624480756820495 1.4003706397458027 -2.0625
v 1.5 0 2.0625
v 1.5 0 -2.0625
v 0.9040992990259744 1.3779726428992214 -2.0625
v 0.9040992990259744 1.3779726428992214 2.0625
v 1.441651223343925 -0.02239799684658128 -2.0625
v 1.441651223343925 -0.02239799684658128 2.0625
vt 0.47265625 0.6796875
vt 0.4765625 0.6796875
vt 0.4765625 0.5859375
vt 0.47265625 0.5859375
vt 0 0.8125
vt 0.2578125 0.8125
vt 0.2578125 0.71875
vt 0 0.71875
vt 0.47265625 0.5859375
vt 0.4765625 0.5859375
vt 0.4765625 0.4921875
vt 0.47265625 0.4921875
vt 0.2578125 1
vt 0.515625 1
vt 0.515625 0.90625
vt 0.2578125 0.90625
vt 0.45703125 0.4296875
vt 0.453125 0.4296875
vt 0.453125 0.6875
vt 0.45703125 0.6875
vt 0.4609375 0.6875
vt 0.45703125 0.6875
vt 0.45703125 0.4296875
vt 0.4609375 0.4296875
vn 0 0 -1
vn 0.9335804264972017 0.3583679495453003 0
vn 0 0 1
vn -0.9335804264972017 -0.3583679495453003 0
vn -0.3583679495453003 0.9335804264972017 0
vn 0.3583679495453003 -0.9335804264972017 0
usemtl m_4ee7f4be-e692-3688-7ee2-b6795d346216
f 28/76/19 31/75/19 29/74/19 26/73/19
f 27/80/20 28/79/20 26/78/20 25/77/20
f 32/84/21 27/83/21 25/82/21 30/81/21
f 31/88/22 32/87/22 30/86/22 29/85/22
f 30/92/23 25/91/23 26/90/23 29/89/23
f 31/96/24 28/95/24 27/94/24 32/93/24
o mid
v 0.7723493478300207 2.406666050825533 2.0625
v 0.7723493478300207 2.406666050825533 -2.0625
v 1.00625 1.3062500000000008 2.0625
v 1.00625 1.3062500000000008 -2.0625
v 0.7112151227841579 2.393671570149423 -2.0625
v 0.7112151227841579 2.393671570149423 2.0625
v 0.9451157749541372 1.2932555193238908 -2.0625
v 0.9451157749541372 1.2932555193238908 2.0625
vt 0.4765625 0.5390625
vt 0.48046875 0.5390625
vt 0.48046875 0.46875
vt 0.4765625 0.46875
vt 0.2578125 0.765625
vt 0.515625 0.765625
vt 0.515625 0.6953125
vt 0.2578125 0.6953125
vt 0.48046875 0.6796875
vt 0.484375 0.6796875
vt 0.484375 0.609375
vt 0.48046875 0.609375
vt 0 0.71875
vt 0.2578125 0.71875
vt 0.2578125 0.6484375
vt 0 0.6484375
vt 0.46484375 0.4296875
vt 0.4609375 0.4296875
vt 0.4609375 0.6875
vt 0.46484375 0.6875
vt 0.46875 0.6875
vt 0.46484375 0.6875
vt 0.46484375 0.4296875
vt 0.46875 0.4296875
vn 0 0 -1
vn 0.9781476007338057 0.2079116908177593 0
vn 0 0 1
vn -0.9781476007338057 -0.2079116908177593 0
vn -0.2079116908177593 0.9781476007338057 0
vn 0.2079116908177593 -0.9781476007338057 0
usemtl m_4ee7f4be-e692-3688-7ee2-b6795d346216
f 36/100/25 39/99/25 37/98/25 34/97/25
f 35/104/26 36/103/26 34/102/26 33/101/26
f 40/108/27 35/107/27 33/106/27 38/105/27
f 39/112/28 40/111/28 38/110/28 37/109/28
f 38/116/29 33/115/29 34/114/29 37/113/29
f 39/120/30 36/119/30 35/118/30 40/117/30
o top
v 0.7988378773871945 2.369822440287246 2.0625
v 0.7988378773871945 2.369822440287246 -2.0625
v 0.7570172144897658 2.3233758886949087 2.0625
v 0.7570172144897658 2.3233758886949087 -2.0625
v 0.009246500317463102 3.0807737095435326 -2.0625
v 0.009246500317463102 3.0807737095435326 2.0625
v -0.03257416257996548 3.0343271579511955 -2.0625
v -0.03257416257996548 3.0343271579511955 2.0625
vt 0.48046875 0.6015625
vt 0.546875 0.6015625
vt 0.546875 0.59765625
vt 0.48046875 0.59765625
vt 0.46875 0.6875
vt 0.7265625 0.6875
vt 0.7265625 0.68359375
vt 0.46875 0.68359375
vt 0.48046875 0.59765625
vt 0.546875 0.59765625
vt 0.546875 0.59375
vt 0.48046875 0.59375
vt 0.46875 0.68359375
vt 0.7265625 0.68359375
vt 0.7265625 0.6796875
vt 0.46875 0.6796875
vt 0.06640625 0.390625
vt 0 0.390625
vt 0 0.6484375
vt 0.06640625 0.6484375
vt 0.1328125 0.6484375
vt 0.06640625 0.6484375
vt 0.06640625 0.390625
vt 0.1328125 0.390625
vn 0 0 -1
vn 0.7431448254773942 -0.6691306063588582 0
vn 0 0 1
vn -0.7431448254773942 0.6691306063588582 0
vn 0.6691306063588582 0.7431448254773942 0
vn -0.6691306063588582 -0.7431448254773942 0
usemtl m_4ee7f4be-e692-3688-7ee2-b6795d346216
f 44/124/31 47/123/31 45/122/31 42/121/31
f 43/128/32 44/127/32 42/126/32 41/125/32
f 48/132/33 43/131/33 41/130/33 46/129/33
f 47/136/34 48/135/34 46/134/34 45/133/34
f 46/140/35 41/139/35 42/138/35 45/137/35
f 47/144/36 44/143/36 43/142/36 48/141/36
o front
v 0.125 2.9375 -1.625
v 0.125 2.9375 -1.875
v 0.125 0 -1.625
v 0.125 0 -1.875
v -0.125 2.9375 -1.875
v -0.125 2.9375 -1.625
v -0.125 0 -1.875
v -0.125 0 -1.625
vt 0.1796875 0.6484375
vt 0.1953125 0.6484375
vt 0.1953125 0.46484375
vt 0.1796875 0.46484375
vt 0.1953125 0.6484375
vt 0.2109375 0.6484375
vt 0.2109375 0.46484375
vt 0.1953125 0.46484375
vt 0.2109375 0.6484375
vt 0.2265625 0.6484375
vt 0.2265625 0.46484375
vt 0.2109375 0.46484375
vt 0.2265625 0.6484375
vt 0.2421875 0.6484375
vt 0.2421875 0.46484375
vt 0.2265625 0.46484375
vt 0.49609375 0.578125
vt 0.48046875 0.578125
vt 0.48046875 0.59375
vt 0.49609375 0.59375
vt 0.49609375 0.578125
vt 0.48046875 0.578125
vt 0.48046875 0.5625
vt 0.49609375 0.5625
vn 0 0 -1
vn 1 0 0
vn 0 0 1
vn -1 0 0
vn 0 1 0
vn 0 -1 0
usemtl m_4ee7f4be-e692-3688-7ee2-b6795d346216
f 52/148/37 55/147/37 53/146/37 50/145/37
f 51/152/38 52/151/38 50/150/38 49/149/38
f 56/156/39 51/155/39 49/154/39 54/153/39
f 55/160/40 56/159/40 54/158/40 53/157/40
f 54/164/41 49/163/41 50/162/41 53/161/41
f 55/168/42 52/167/42 51/166/42 56/165/42
o back
v 0.125 2.9375 1.875
v 0.125 2.9375 1.625
v 0.125 0 1.875
v 0.125 0 1.625
v -0.125 2.9375 1.625
v -0.125 2.9375 1.875
v -0.125 0 1.625
v -0.125 0 1.875
vt 0.2421875 0.6484375
vt 0.2578125 0.6484375
vt 0.2578125 0.46484375
vt 0.2421875 0.46484375
vt 0.390625 0.6953125
vt 0.40625 0.6953125
vt 0.40625 0.51171875
vt 0.390625 0.51171875
vt 0.40625 0.6953125
vt 0.421875 0.6953125
vt 0.421875 0.51171875
vt 0.40625 0.51171875
vt 0.421875 0.6953125
vt 0.4375 0.6953125
vt 0.4375 0.51171875
vt 0.421875 0.51171875
vt 0.49609375 0.546875
vt 0.48046875 0.546875
vt 0.48046875 0.5625
vt 0.49609375 0.5625
vt 0.49609375 0.546875
vt 0.48046875 0.546875
vt 0.48046875 0.53125
vt 0.49609375 0.53125
vn 0 0 -1
vn 1 0 0
vn 0 0 1
vn -1 0 0
vn 0 1 0
vn 0 -1 0
usemtl m_4ee7f4be-e692-3688-7ee2-b6795d346216
f 60/172/43 63/171/43 61/170/43 58/169/43
f 59/176/44 60/175/44 58/174/44 57/173/44
f 64/180/45 59/179/45 57/178/45 62/177/45
f 63/184/46 64/183/46 62/182/46 61/181/46
f 62/188/47 57/187/47 58/186/47 61/185/47
f 63/192/48 60/191/48 59/190/48 64/189/48
o top
v 0.01558501529094547 3.039249599115656 2.187500009902896
v -0.11929119727255089 2.909001154654594 2.1874999956699597
v 0.015585244112560348 3.039249840243327 -2.1874999900970895
v -0.11929096845093612 2.9090013957822647 -2.187500004330026
v 0.010957247188511432 2.774124942091097 2.1874999950485363
v 0.1458334597520079 2.9043733865521593 2.1875000092814725
v 0.0109574760101262 2.774125183218768 -2.18750000495145
v 0.14583368857362267 2.90437362767983 -2.1874999907185133
vt 0.1328125 0.6484375
vt 0.14453125 0.6484375
vt 0.14453125 0.375
vt 0.1328125 0.375
vt 0.14453125 0.6484375
vt 0.15625 0.6484375
vt 0.15625 0.375
vt 0.14453125 0.375
vt 0.15625 0.6484375
vt 0.16796875 0.6484375
vt 0.16796875 0.375
vt 0.15625 0.375
vt 0.16796875 0.6484375
vt 0.1796875 0.6484375
vt 0.1796875 0.375
vt 0.16796875 0.375
vt 0.4921875 0.51953125
vt 0.48046875 0.51953125
vt 0.48046875 0.53125
vt 0.4921875 0.53125
vt 0.4921875 0.51953125
vt 0.48046875 0.51953125
vt 0.48046875 0.5078125
vt 0.4921875 0.5078125
vn -0.7193398003386476 -0.6946583704589968 -7.590899420454115e-8
vn -0.6946583704589991 0.7193398003386494 3.314258413114103e-9
vn 0.7193398003386476 0.6946583704589968 7.590899420454115e-8
vn 0.6946583704589991 -0.7193398003386494 -3.314258413114103e-9
vn -5.23020833359408e-8 -5.511489609060821e-8 0.9999999999999971
vn 5.23020833359408e-8 5.511489609060821e-8 -0.9999999999999971
usemtl m_4ee7f4be-e692-3688-7ee2-b6795d346216
f 68/196/49 71/195/49 69/194/49 66/193/49
f 67/200/50 68/199/50 66/198/50 65/197/50
f 72/204/51 67/203/51 65/202/51 70/201/51
f 71/208/52 72/207/52 70/206/52 69/205/52
f 70/212/53 65/211/53 66/210/53 69/209/53
f 71/216/54 68/215/54 67/214/54 72/213/54